<svg width="100" height="100" viewBox="0 0 100 100" fill="none" xmlns="http://www.w3.org/2000/svg">
<circle cx="50" cy="50" r="50" fill="#97A0EC"/>
<rect x="22.5" y="21.5" width="53" height="29.375" rx="0.5" fill="white" stroke="black"/>
<path d="M28 46C31.3158 38.9679 38.8316 26.4859 42.3684 32.8148C45.9053 39.1437 48.4474 36.7704 49.2763 34.7926C50.1053 32.9247 52.15 30.3096 53.6974 34.7926C55.6316 40.3963 57.2895 48.9667 61.1579 37.1C65.0263 25.2333 64.4737 19.6296 70 37.1" stroke="black"/>
<rect x="16.5" y="59.5" width="16" height="12" fill="white" stroke="black"/>
<rect x="41.5" y="66.5" width="16" height="12" fill="white" stroke="black"/>
<rect x="66.5" y="59.5" width="16" height="12" fill="white" stroke="black"/>
<path d="M49.5 66.5V51" stroke="black"/>
<line x1="32.7465" y1="61.569" x2="49.7465" y2="51.569" stroke="black"/>
<line x1="49.2535" y1="51.569" x2="66.2535" y2="61.569" stroke="black"/>
</svg>
